<svg width="24" height="24" viewBox="0 0 24 24" fill="none" xmlns="http://www.w3.org/2000/svg">
<path d="M18 3L18.7071 2.2929C18.5196 2.10536 18.2652 2 18 2C17.7348 2 17.4804 2.10536 17.2929 2.2929L18 3ZM20.8284 5.82843L21.5355 6.53554C21.9261 6.14501 21.9261 5.51185 21.5355 5.12132L20.8284 5.82843ZM10.9289 15.7279V16.7279C11.1941 16.7279 11.4485 16.6226 11.636 16.435L10.9289 15.7279ZM8.1005 12.8995L7.39339 12.1924C7.20585 12.3799 7.1005 12.6343 7.1005 12.8995H8.1005ZM8.1005 15.7279H7.1005C7.1005 16.2802 7.54821 16.7279 8.1005 16.7279V15.7279ZM21 21V22C21.5523 22 22 21.5523 22 21H21ZM3 21H2C2 21.5523 2.44772 22 3 22V21ZM3 3V2C2.44772 2 2 2.44772 2 3H3ZM17.2929 3.70711L20.1213 6.53554L21.5355 5.12132L18.7071 2.2929L17.2929 3.70711ZM20.1213 5.12132L10.2218 15.0208L11.636 16.435L21.5355 6.53554L20.1213 5.12132ZM8.8076 13.6066L18.7071 3.70711L17.2929 2.2929L7.39339 12.1924L8.8076 13.6066ZM10.9289 14.7279H8.1005V16.7279H10.9289V14.7279ZM9.1005 15.7279V12.8995H7.1005V15.7279H9.1005ZM21 20H3V22H21V20ZM4 21V3H2V21H4ZM3 4H12V2H3V4ZM20 12V21H22V12H20Z" fill="#324552"/>
</svg>
