<svg width="24" height="24" viewBox="0 0 24 24" fill="none" xmlns="http://www.w3.org/2000/svg">
<path fill-rule="evenodd" clip-rule="evenodd" d="M6.33064 7.20291V10.2556H5.02236C4.05857 10.2556 3.27789 11.0362 3.27789 12V20.7221C3.27789 21.6859 4.05857 22.4664 5.02236 22.4664H18.9776C19.9413 22.4664 20.7221 21.6859 20.7221 20.7221V12C20.7221 11.0362 19.9413 10.2556 18.9776 10.2556H17.6694V7.20291C17.6694 4.07177 15.1311 1.53358 12 1.53358C8.86898 1.53358 6.33064 4.07173 6.33064 7.20291ZM8.51119 10.2556V7.20291C8.51119 5.27537 10.0724 3.71403 12 3.71403C13.9276 3.71403 15.4889 5.27537 15.4889 7.20291V10.2556H8.51119ZM10.2556 15.0527C10.2556 14.089 11.0362 13.3084 12 13.3084C12.9638 13.3084 13.7443 14.089 13.7443 15.0527C13.7443 15.6677 13.4259 16.2085 12.9463 16.5181C12.9463 16.5181 13.1167 17.5475 13.3084 18.7597C13.3084 19.1215 13.0162 19.4137 12.6542 19.4137H11.3458C10.9838 19.4137 10.6917 19.1215 10.6917 18.7597L11.0537 16.5181C10.5741 16.2085 10.2556 15.6677 10.2556 15.0527Z" fill="#324552"/>
</svg>
