<svg width="24" height="24" viewBox="0 0 24 24" fill="none" xmlns="http://www.w3.org/2000/svg">
<path d="M20.4154 16.4081C20.66 16.5362 20.9634 16.4422 21.0792 16.1915C21.7387 14.7628 22.0529 13.1963 21.9927 11.6192C21.9263 9.87521 21.4046 8.17901 20.4795 6.69916C19.5543 5.21931 18.258 4.00733 16.7194 3.18369C15.3279 2.43884 13.7821 2.03503 12.2088 2.00218C11.9327 1.99641 11.7154 2.228 11.7234 2.50403L11.77 4.10335C11.7781 4.37937 12.0085 4.59485 12.2845 4.60547C13.4038 4.64852 14.501 4.94526 15.4924 5.47593C16.631 6.08543 17.5902 6.98229 18.2748 8.07738C18.9594 9.17247 19.3454 10.4277 19.3946 11.7182C19.4375 12.8418 19.2236 13.9582 18.772 14.9832C18.6607 15.2359 18.7535 15.5375 18.9981 15.6657L20.4154 16.4081Z" fill="#324552"/>
</svg>
