<svg width="24" height="24" viewBox="0 0 24 24" fill="none" xmlns="http://www.w3.org/2000/svg">
<path fill-rule="evenodd" clip-rule="evenodd" d="M10.6562 11.1511C10.6562 11.1511 12.5312 11.0261 12.5312 8.77612C12.5312 6.52612 10.7812 5.65112 8.78125 5.65112H2.53125V18.1511H8.78125C8.78125 18.1511 12.9062 18.0261 12.9062 14.2761C12.9062 14.2761 13.1562 11.1511 10.6562 11.1511ZM5.40625 7.65112H9.03125C9.03125 7.65112 9.90625 7.65112 9.90625 8.90112C9.90625 10.1511 9.40625 10.4011 8.78125 10.4011H5.40625V7.65112ZM8.78125 15.6511H5.40625V12.4011H9.03125C9.03125 12.4011 10.2812 12.4011 10.2812 14.1511C10.2812 15.5261 9.28125 15.6511 8.78125 15.6511Z" fill="white"/>
<path fill-rule="evenodd" clip-rule="evenodd" d="M17.2874 8.15112C12.5374 8.15112 12.5374 12.9011 12.5374 12.9011C12.5374 12.9011 12.1624 17.6511 17.2874 17.6511C17.2874 17.6511 21.5374 17.9011 21.5374 14.4011H19.4124C19.4124 14.4011 19.5374 15.7761 17.4124 15.7761C17.4124 15.7761 15.2874 15.9011 15.2874 13.6511H21.6624C21.6624 13.5261 22.2874 8.15112 17.2874 8.15112ZM19.2874 11.9011H15.1624C15.1624 11.9011 15.4124 10.0261 17.2874 10.0261C19.2874 9.90112 19.2874 11.9011 19.2874 11.9011Z" fill="white"/>
<path d="M15.0312 5.65112H21.2812V6.90112H15.0312V5.65112Z" fill="white"/>
</svg>
