<svg width="24" height="24" viewBox="0 0 24 24" fill="none" xmlns="http://www.w3.org/2000/svg">
<path fill-rule="evenodd" clip-rule="evenodd" d="M4.85714 21C6.4351 21 7.71429 19.7208 7.71429 18.1428C7.71429 16.5649 6.4351 15.2857 4.85714 15.2857C3.27919 15.2857 2 16.5649 2 18.1428C2 19.7208 3.27919 21 4.85714 21Z" fill="white"/>
<path fill-rule="evenodd" clip-rule="evenodd" d="M22 21H18.1429C18.1429 12.1429 10.8571 4.85714 2 4.85714V1C13 1 22 10 22 21Z" fill="white"/>
<path fill-rule="evenodd" clip-rule="evenodd" d="M15.2857 21.4286H11.5714C11.5714 16.1429 7.28571 11.8571 2 11.8571V8.14285C9.28571 8.14285 15.2857 14.1429 15.2857 21.4286Z" fill="white"/>
</svg>
