<svg width="24" height="24" viewBox="0 0 24 24" fill="none" xmlns="http://www.w3.org/2000/svg">
<path fill-rule="evenodd" clip-rule="evenodd" d="M20.8235 7.88235C20.7059 9.76471 19.4118 12.2353 16.9412 15.4118C14.3529 18.7059 12.2353 20.3529 10.4706 20.3529C9.41177 20.3529 8.47059 19.2941 7.64706 17.2941C6.70588 14.4706 6 8.70588 4.35294 8.70588C4.23529 8.70588 3.76471 9.05882 2.94118 9.64706L2 8.47059C2.94118 7.64706 6.11765 4.47059 7.52941 4.35294C8.94118 4.23529 9.88235 5.17647 10.2353 7.29412C10.5882 9.64706 11.1765 14.4706 12.3529 14.4706C13.4118 14.4706 15.2941 10.4706 15.4118 9.76471C15.5294 8.70588 15.0588 7.52941 12.7059 8.47059C13.6471 5.41176 15.4118 4 18 4C20 4.11765 20.9412 5.41176 20.8235 7.88235Z" fill="white"/>
</svg>
