<svg width="24" height="24" viewBox="0 0 24 24" fill="none" xmlns="http://www.w3.org/2000/svg">
<path d="M11.8734 7.11855C9.33311 7.11855 7.22827 9.1871 7.22827 11.7637C7.22827 14.3403 9.29682 16.4089 11.8734 16.4089C14.45 16.4089 16.5186 14.304 16.5186 11.7637C16.5186 9.22339 14.4138 7.11855 11.8734 7.11855ZM11.8734 14.7395C10.2404 14.7395 8.89763 13.3968 8.89763 11.7637C8.89763 10.1306 10.2404 8.78791 11.8734 8.78791C13.5065 8.78791 14.8492 10.1306 14.8492 11.7637C14.8492 13.3968 13.5065 14.7395 11.8734 14.7395Z" fill="#324552"/>
<path d="M16.7001 8.0621C17.2814 8.0621 17.7525 7.59091 17.7525 7.00968C17.7525 6.42844 17.2814 5.95726 16.7001 5.95726C16.1189 5.95726 15.6477 6.42844 15.6477 7.00968C15.6477 7.59091 16.1189 8.0621 16.7001 8.0621Z" fill="#324552"/>
<path d="M19.4219 4.28791C18.4784 3.30807 17.1356 2.8 15.6114 2.8H8.13563C4.97837 2.8 2.87354 4.90484 2.87354 8.0621V15.5016C2.87354 17.0621 3.3816 18.4048 4.39773 19.3847C5.37757 20.3282 6.68402 20.8 8.17192 20.8H15.5751C17.1356 20.8 18.4421 20.2919 19.3856 19.3847C20.3655 18.4411 20.8735 17.0984 20.8735 15.5379V8.0621C20.8735 6.53791 20.3655 5.23145 19.4219 4.28791ZM19.2768 15.5379C19.2768 16.6629 18.8776 17.5702 18.2243 18.1871C17.5711 18.804 16.6639 19.1306 15.5751 19.1306H8.17192C7.08321 19.1306 6.17595 18.804 5.52273 18.1871C4.8695 17.5339 4.54289 16.6266 4.54289 15.5016V8.0621C4.54289 6.97339 4.8695 6.06613 5.52273 5.41291C6.13966 4.79597 7.08321 4.46936 8.17192 4.46936H15.6477C16.7364 4.46936 17.6437 4.79597 18.2969 5.4492C18.9139 6.10242 19.2768 7.00968 19.2768 8.0621V15.5379Z" fill="#324552"/>
</svg>
