<svg width="24" height="24" viewBox="0 0 24 24" fill="none" xmlns="http://www.w3.org/2000/svg">
<path fill-rule="evenodd" clip-rule="evenodd" d="M21.625 8.21875L12.5 2.09375C12.25 1.96875 11.75 1.96875 11.5 2.09375C11.5 2.09375 2.75 7.96875 2.375 8.21875C2 8.46875 2 8.84375 2 8.96875V15.0938C2 15.4688 2.375 15.7188 2.375 15.7188L11.5 21.8438C11.625 21.9688 11.875 21.9688 12 21.9688C12.125 21.9688 12.375 21.9688 12.5 21.8438L21.625 15.7188C21.625 15.7188 22 15.4688 22 14.9688V8.96875C22 8.84375 22 8.46875 21.625 8.21875ZM12.875 4.46875L19.625 8.96875L16.625 10.9688L12.875 8.46875V4.46875ZM11.125 4.46875V8.46875L7.375 10.9688L4.375 8.96875L11.125 4.46875ZM3.75 10.4688L5.875 11.9688L3.75 13.4688V10.4688ZM11.125 19.4688L4.375 14.9688L7.375 12.9688L11.125 15.4688V19.4688ZM12 13.9688L9 11.9688L12 9.96875L15 11.9688L12 13.9688ZM12.875 19.4688V15.4688L16.625 12.9688L19.625 14.9688L12.875 19.4688ZM20.25 13.4688L18.125 11.9688L20.25 10.4688V13.4688Z" fill="white"/>
</svg>
