<svg width="24" height="24" viewBox="0 0 24 24" fill="none" xmlns="http://www.w3.org/2000/svg">
<path fill-rule="evenodd" clip-rule="evenodd" d="M21.1176 13.9412C21.2353 13.4706 21.8235 9.47059 18.6471 6.05882C15.7059 2.88235 11.1176 3.47059 10.6471 3.58824C9.94118 3.23529 9.11765 3 8.29412 3C4.17647 3 3 6.88235 3 8.29412C3 9.70588 3.70588 10.8824 3.70588 10.8824C3.23529 12.7647 3.82353 14.7647 4.17647 15.8235C5.23529 18.5294 7.82353 20.0588 8.88235 20.5294C11.4706 21.5882 13.5882 21.1176 13.9412 21.1176C14.7647 21.5882 15.5882 21.8235 16.5294 21.8235C17.9412 21.8235 21.8235 20.6471 21.8235 16.5294C21.8235 15.1176 21.1176 13.9412 21.1176 13.9412ZM12.4118 17.8235C9.23529 17.8235 7.82353 16.2941 7.82353 15.1176C7.82353 14.5294 8.29412 14.0588 8.88235 14.0588C10.1765 14.0588 9.94118 15.9412 12.4118 15.9412C13.7059 15.9412 14.4118 15.2353 14.4118 14.5294C14.4118 13.1176 12.7647 13.3529 10.5294 12.7647C8.29412 12.1765 7.94118 11 7.94118 9.82353C7.94118 7.47059 10.1765 6.52941 12.2941 6.52941C14.2941 6.52941 16.5294 7.58824 16.5294 9C16.5294 9.58824 15.9412 9.94118 15.3529 9.94118C14.1765 9.94118 14.4118 8.29412 12.0588 8.29412C10.8824 8.29412 10.2941 8.76471 10.2941 9.58824C10.2941 10.6471 12.4118 10.8824 14.0588 11.2353C16.2941 11.8235 16.8824 13.1176 16.8824 14.2941C17 16.4118 15.4706 17.8235 12.4118 17.8235Z" fill="white"/>
</svg>
