<svg width="24" height="24" viewBox="0 0 24 24" fill="none" xmlns="http://www.w3.org/2000/svg">
<path fill-rule="evenodd" clip-rule="evenodd" d="M5.31623 11.049C5.06623 11.549 4.81623 14.299 5.19123 15.174C5.31623 15.424 5.56623 15.549 5.81623 15.549C5.94123 15.549 10.3162 14.174 10.3162 14.174C10.6912 14.049 10.8162 13.799 10.9412 13.424C10.9412 13.049 10.8162 12.674 10.4412 12.549C10.4412 12.549 6.19123 10.799 6.06623 10.799C5.69123 10.674 5.56623 10.799 5.31623 11.049Z" fill="white"/>
<path fill-rule="evenodd" clip-rule="evenodd" d="M12.0518 21.299C12.0518 21.174 12.0518 16.549 12.0518 16.549C12.0518 16.174 11.8018 15.924 11.5518 15.799C11.1768 15.674 10.8018 15.799 10.5518 16.049C10.5518 16.049 7.67678 19.674 7.55178 19.799C7.42678 20.049 7.55178 20.424 7.67678 20.549C8.17678 21.174 10.6768 22.049 11.4268 21.924C11.8018 21.674 11.9268 21.549 12.0518 21.299Z" fill="white"/>
<path fill-rule="evenodd" clip-rule="evenodd" d="M17.0821 19.924C17.8321 19.674 19.4571 17.549 19.5821 16.674C19.5821 16.424 19.5821 16.174 19.3321 16.049C19.2071 15.924 14.8321 14.549 14.8321 14.549C14.5821 14.424 14.2071 14.549 13.9571 14.799C13.7071 15.049 13.7071 15.549 13.8321 15.799C13.8321 15.799 16.2071 19.799 16.3321 19.799C16.5821 19.924 16.8321 19.924 17.0821 19.924Z" fill="white"/>
<path fill-rule="evenodd" clip-rule="evenodd" d="M19.5625 12.3438C19.8125 12.2188 19.8125 11.9688 19.8125 11.7188C19.6875 10.8438 18.3125 8.71875 17.5625 8.34375C17.3125 8.21875 17.0625 8.21875 16.8125 8.34375C16.6875 8.46875 13.9375 12.2188 13.9375 12.2188C13.6875 12.4688 13.6875 12.8438 13.9375 13.2188C14.3125 13.4688 14.6875 13.7188 15.0625 13.5938C15.0625 13.5938 19.4375 12.4688 19.5625 12.3438Z" fill="white"/>
<path fill-rule="evenodd" clip-rule="evenodd" d="M12.25 10.137C12.25 8.76204 11.75 2.76204 11.75 2.51204C11.625 2.26204 11.5 2.13704 11.25 2.01204C10.375 1.88704 7.125 2.76204 6.5 3.38704C6.25 3.63704 6.25 3.88704 6.25 4.13704C6.375 4.26204 10.375 10.762 10.375 10.762C11 11.762 11.5 11.637 11.625 11.512C11.75 11.512 12.25 11.387 12.25 10.137Z" fill="white"/>
</svg>
