<svg width="24" height="24" viewBox="0 0 24 24" fill="none" xmlns="http://www.w3.org/2000/svg">
<path fill-rule="evenodd" clip-rule="evenodd" d="M10.6562 11.1512C10.6562 11.1512 12.5312 11.0262 12.5312 8.77616C12.5312 6.52616 10.7812 5.65116 8.78125 5.65116H2.53125V18.1512H8.78125C8.78125 18.1512 12.9062 18.0262 12.9062 14.2762C12.9062 14.2762 13.1562 11.1512 10.6562 11.1512ZM5.40625 7.65116H8.53125H9.03125C9.03125 7.65116 9.90625 7.65116 9.90625 8.90116C9.90625 10.1512 9.40625 10.4012 8.78125 10.4012H5.40625V7.65116ZM8.78125 15.6512H5.40625V12.4012H9.03125C9.03125 12.4012 10.2812 12.4012 10.2812 14.1512C10.2812 15.5262 9.28125 15.6512 8.78125 15.6512Z" fill="#324552"/>
<path fill-rule="evenodd" clip-rule="evenodd" d="M17.2874 8.15116C12.5374 8.15116 12.5374 12.9012 12.5374 12.9012C12.5374 12.9012 12.1624 17.6512 17.2874 17.6512C17.2874 17.6512 21.5374 17.9012 21.5374 14.4012H19.4124C19.4124 14.4012 19.5374 15.7762 17.4124 15.7762C17.4124 15.7762 15.2874 15.9012 15.2874 13.6512H21.6624C21.6624 13.5262 22.2874 8.15116 17.2874 8.15116ZM19.2874 11.9012H15.1624C15.1624 11.9012 15.4124 10.0262 17.2874 10.0262C19.2874 9.90116 19.2874 11.9012 19.2874 11.9012Z" fill="#324552"/>
<rect x="15.0312" y="5.65116" width="6.25" height="1.25" fill="#324552"/>
</svg>
