<svg width="24" height="24" viewBox="0 0 24 24" fill="none" xmlns="http://www.w3.org/2000/svg">
<path fill-rule="evenodd" clip-rule="evenodd" d="M12 2.61286C6.5 2.61286 2 6.84816 2 12.0246C2 17.2011 6.5 21.4364 12 21.4364C17.5 21.4364 22 17.2011 22 12.0246C22 6.84816 17.5 2.61286 12 2.61286ZM14.75 11.3187C14.75 11.3187 14.5 10.6129 14.375 10.3776C16.5 9.43639 17.875 8.37757 18.375 7.78933C19.25 8.84816 19.75 10.1423 19.875 11.554C18.875 11.3187 16.625 10.9658 14.75 11.3187ZM13.375 8.61286C12.375 6.9658 11.25 5.55404 10.75 4.73051C13.125 4.14227 15.25 4.84816 16.875 6.25992C16.375 6.84816 15.375 7.78933 13.375 8.61286ZM8.375 5.55404C8.875 6.14227 9.875 7.55404 10.875 9.31874C8.125 9.90698 5.625 10.0246 4.5 10.0246C5 8.14227 6.5 6.49521 8.375 5.55404ZM12 11.2011C12.125 11.4364 12.25 11.6717 12.375 11.7893C8.875 12.8482 6.625 15.554 5.875 16.6129C4.875 15.3187 4.25 13.7893 4.25 12.2599C5.375 12.1423 8.625 12.0246 12 11.2011ZM13.25 13.7893C14.125 16.1423 14.625 18.0246 14.75 18.9658C12.125 19.7893 9.125 19.3187 7.5 18.0246C8 17.2011 9.625 15.0835 13.25 13.7893ZM16.875 17.7893C16.625 16.8482 16.25 15.2011 15.5 13.2011C16.875 12.9658 18.875 13.2011 19.625 13.4364C19.25 15.2011 18.25 16.7305 16.875 17.7893Z" fill="#324552"/>
</svg>
