<svg width="24" height="24" viewBox="0 0 24 24" fill="none" xmlns="http://www.w3.org/2000/svg">
<path fill-rule="evenodd" clip-rule="evenodd" d="M11.8571 10.5714V14H17.7143C17.4286 15.4286 16 18.2857 12 18.2857C8.57143 18.2857 5.85714 15.4286 5.85714 12C5.85714 8.57143 8.71429 5.71429 12 5.71429C14 5.71429 15.2857 6.57143 16 7.28571L18.7143 4.71429C17 3 14.7143 2 12 2C6.42857 2 2 6.42857 2 12C2 17.5714 6.42857 22 12 22C17.7143 22 21.5714 18 21.5714 12.2857C21.5714 11.5714 21.5714 11.1429 21.4286 10.5714H11.8571Z" fill="#324552"/>
</svg>
