<svg width="24" height="24" viewBox="0 0 24 24" fill="none" xmlns="http://www.w3.org/2000/svg">
<path d="M20 22V23C20.5523 23 21 22.5523 21 22H20ZM4 22H3C3 22.5523 3.44772 23 4 23V22ZM5 22C5 18.7682 7.54361 16 12 16V14C6.61024 14 3 17.4998 3 22H5ZM12 16C16.4564 16 19 18.7682 19 22H21C21 17.4998 17.3898 14 12 14V16ZM16 7C16 9.20914 14.2091 11 12 11V13C15.3137 13 18 10.3137 18 7H16ZM12 11C9.79086 11 8 9.20914 8 7H6C6 10.3137 8.68629 13 12 13V11ZM8 7C8 4.79086 9.79086 3 12 3V1C8.68629 1 6 3.68629 6 7H8ZM12 3C14.2091 3 16 4.79086 16 7H18C18 3.68629 15.3137 1 12 1V3ZM20 21H4V23H20V21Z" fill="white"/>
</svg>
