<svg width="24" height="24" viewBox="0 0 24 24" fill="none" xmlns="http://www.w3.org/2000/svg">
<path d="M5.00002 11L5.9806 10.8039L5.00002 11ZM18.0194 10.8039C17.5535 13.1336 16.3757 15.5012 15.0686 17.2836C14.4165 18.1728 13.7545 18.8857 13.1656 19.3651C12.5343 19.8789 12.1397 20 12 20V22C12.8604 22 13.7157 21.4961 14.4282 20.9162C15.183 20.3018 15.9585 19.4522 16.6814 18.4664C18.1243 16.4988 19.4465 13.8664 19.9806 11.1961L18.0194 10.8039ZM12 20C11.8604 20 11.4657 19.8789 10.8344 19.3651C10.2455 18.8857 9.58352 18.1728 8.93143 17.2836C7.62434 15.5012 6.44654 13.1336 5.9806 10.8039L4.01944 11.1961C4.55351 13.8664 5.87572 16.4988 7.31862 18.4664C8.04153 19.4522 8.817 20.3018 9.57187 20.9162C10.2843 21.4961 11.1397 22 12 22V20ZM5.9806 10.8039C5.54824 8.64213 6.21963 6.98088 7.37808 5.83637C8.56692 4.66184 10.3072 4 12 4V2C9.82688 2 7.56711 2.83816 5.97245 4.41362C4.34739 6.01912 3.45178 8.35787 4.01944 11.1961L5.9806 10.8039ZM12 4C13.6929 4 15.4331 4.66184 16.6219 5.83637C17.7804 6.98088 18.4518 8.64213 18.0194 10.8039L19.9806 11.1961C20.5482 8.35787 19.6526 6.01912 18.0276 4.41363C16.4329 2.83816 14.1732 2 12 2V4ZM13.5 10C13.5 10.8284 12.8284 11.5 12 11.5V13.5C13.933 13.5 15.5 11.933 15.5 10H13.5ZM12 11.5C11.1716 11.5 10.5 10.8284 10.5 10H8.50001C8.50001 11.933 10.067 13.5 12 13.5V11.5ZM10.5 10C10.5 9.17158 11.1716 8.50001 12 8.50001V6.50001C10.067 6.50001 8.50001 8.06701 8.50001 10H10.5ZM12 8.50001C12.8284 8.50001 13.5 9.17158 13.5 10H15.5C15.5 8.06701 13.933 6.50001 12 6.50001V8.50001Z" fill="white"/>
</svg>
